<svg width="100" height="148" viewBox="0 0 100 148" fill="none" xmlns="http://www.w3.org/2000/svg">
<path d="M0 0H100V147.5H0V0Z" fill="#4B4B4B"/>
<path d="M25.9599 56.8182V67H24.1005L19.6708 60.5916H19.5962V67H17.4435V56.8182H19.3327L23.7276 63.2216H23.8171V56.8182H25.9599Z" fill="white"/>
<path d="M31.149 67.1491C30.3767 67.1491 29.7089 66.9851 29.1454 66.657C28.5853 66.3255 28.1528 65.8648 27.8478 65.2749C27.5429 64.6816 27.3904 63.9938 27.3904 63.2116C27.3904 62.4228 27.5429 61.7334 27.8478 61.1435C28.1528 60.5502 28.5853 60.0895 29.1454 59.7614C29.7089 59.4299 30.3767 59.2642 31.149 59.2642C31.9212 59.2642 32.5874 59.4299 33.1475 59.7614C33.711 60.0895 34.1452 60.5502 34.4501 61.1435C34.755 61.7334 34.9075 62.4228 34.9075 63.2116C34.9075 63.9938 34.755 64.6816 34.4501 65.2749C34.1452 65.8648 33.711 66.3255 33.1475 66.657C32.5874 66.9851 31.9212 67.1491 31.149 67.1491ZM31.1589 65.5085C31.5102 65.5085 31.8036 65.4091 32.0389 65.2102C32.2742 65.008 32.4515 64.733 32.5708 64.3849C32.6935 64.0369 32.7548 63.6409 32.7548 63.1967C32.7548 62.7526 32.6935 62.3565 32.5708 62.0085C32.4515 61.6605 32.2742 61.3854 32.0389 61.1832C31.8036 60.9811 31.5102 60.88 31.1589 60.88C30.8043 60.88 30.506 60.9811 30.264 61.1832C30.0254 61.3854 29.8448 61.6605 29.7221 62.0085C29.6028 62.3565 29.5431 62.7526 29.5431 63.1967C29.5431 63.6409 29.6028 64.0369 29.7221 64.3849C29.8448 64.733 30.0254 65.008 30.264 65.2102C30.506 65.4091 30.8043 65.5085 31.1589 65.5085Z" fill="white"/>
<path d="M39.5249 69.8636V59.3636H41.6129V60.6463H41.7074C41.8002 60.4408 41.9344 60.232 42.1101 60.0199C42.2891 59.8045 42.5211 59.6255 42.8061 59.483C43.0945 59.3371 43.4524 59.2642 43.88 59.2642C44.4368 59.2642 44.9505 59.41 45.4212 59.7017C45.8918 59.9901 46.268 60.4259 46.5497 61.0092C46.8314 61.5893 46.9723 62.3168 46.9723 63.1918C46.9723 64.0436 46.8348 64.7628 46.5597 65.3494C46.2879 65.9328 45.9167 66.3752 45.446 66.6768C44.9787 66.9751 44.455 67.1243 43.875 67.1243C43.464 67.1243 43.1143 67.0563 42.826 66.9205C42.541 66.7846 42.3073 66.6139 42.125 66.4084C41.9427 66.1996 41.8035 65.9891 41.7074 65.777H41.6428V69.8636H39.5249ZM41.598 63.1818C41.598 63.6359 41.661 64.032 41.7869 64.37C41.9129 64.7081 42.0952 64.9716 42.3338 65.1605C42.5724 65.3461 42.8625 65.4389 43.2038 65.4389C43.5485 65.4389 43.8402 65.3445 44.0788 65.1555C44.3175 64.9633 44.4981 64.6982 44.6207 64.3601C44.7467 64.0187 44.8097 63.6259 44.8097 63.1818C44.8097 62.741 44.7483 62.3532 44.6257 62.0185C44.5031 61.6837 44.3224 61.4219 44.0838 61.233C43.8452 61.044 43.5518 60.9496 43.2038 60.9496C42.8591 60.9496 42.5675 61.0407 42.3288 61.223C42.0935 61.4053 41.9129 61.6638 41.7869 61.9986C41.661 62.3333 41.598 62.7277 41.598 63.1818Z" fill="white"/>
<path d="M51.8345 67.1491C51.0623 67.1491 50.3944 66.9851 49.831 66.657C49.2708 66.3255 48.8383 65.8648 48.5334 65.2749C48.2285 64.6816 48.076 63.9938 48.076 63.2116C48.076 62.4228 48.2285 61.7334 48.5334 61.1435C48.8383 60.5502 49.2708 60.0895 49.831 59.7614C50.3944 59.4299 51.0623 59.2642 51.8345 59.2642C52.6068 59.2642 53.273 59.4299 53.8331 59.7614C54.3965 60.0895 54.8307 60.5502 55.1357 61.1435C55.4406 61.7334 55.593 62.4228 55.593 63.2116C55.593 63.9938 55.4406 64.6816 55.1357 65.2749C54.8307 65.8648 54.3965 66.3255 53.8331 66.657C53.273 66.9851 52.6068 67.1491 51.8345 67.1491ZM51.8445 65.5085C52.1958 65.5085 52.4891 65.4091 52.7244 65.2102C52.9598 65.008 53.1371 64.733 53.2564 64.3849C53.379 64.0369 53.4403 63.6409 53.4403 63.1967C53.4403 62.7526 53.379 62.3565 53.2564 62.0085C53.1371 61.6605 52.9598 61.3854 52.7244 61.1832C52.4891 60.9811 52.1958 60.88 51.8445 60.88C51.4898 60.88 51.1915 60.9811 50.9496 61.1832C50.7109 61.3854 50.5303 61.6605 50.4077 62.0085C50.2884 62.3565 50.2287 62.7526 50.2287 63.1967C50.2287 63.6409 50.2884 64.0369 50.4077 64.3849C50.5303 64.733 50.7109 65.008 50.9496 65.2102C51.1915 65.4091 51.4898 65.5085 51.8445 65.5085Z" fill="white"/>
<path d="M63.3239 61.5412L61.3849 61.6605C61.3518 61.4948 61.2805 61.3456 61.1712 61.2131C61.0618 61.0772 60.9176 60.9695 60.7386 60.8899C60.563 60.8071 60.3525 60.7656 60.1072 60.7656C59.7791 60.7656 59.5024 60.8352 59.277 60.9744C59.0516 61.1103 58.9389 61.2926 58.9389 61.5213C58.9389 61.7036 59.0118 61.8577 59.1577 61.9837C59.3035 62.1096 59.5537 62.2107 59.9084 62.2869L61.2905 62.5653C62.0329 62.7178 62.5864 62.9631 62.951 63.3011C63.3156 63.6392 63.4979 64.0833 63.4979 64.6335C63.4979 65.134 63.3504 65.5732 63.0554 65.951C62.7637 66.3288 62.3627 66.6238 61.8523 66.8359C61.3452 67.0447 60.7602 67.1491 60.0973 67.1491C59.0864 67.1491 58.281 66.9387 57.6811 66.5178C57.0845 66.0935 56.7348 65.5168 56.6321 64.7876L58.7152 64.6783C58.7782 64.9865 58.9306 65.2218 59.1726 65.3842C59.4145 65.5433 59.7244 65.6229 60.1023 65.6229C60.4735 65.6229 60.7718 65.5516 60.9972 65.4091C61.2259 65.2633 61.3419 65.076 61.3452 64.8473C61.3419 64.6551 61.2607 64.4976 61.1016 64.375C60.9425 64.2491 60.6972 64.1529 60.3658 64.0866L59.0433 63.8232C58.2976 63.674 57.7424 63.4155 57.3778 63.0476C57.0166 62.6797 56.8359 62.2107 56.8359 61.6406C56.8359 61.1501 56.9685 60.7275 57.2337 60.3729C57.5021 60.0182 57.8783 59.7448 58.3622 59.5526C58.8494 59.3603 59.4195 59.2642 60.0724 59.2642C61.0369 59.2642 61.7959 59.468 62.3494 59.8757C62.9062 60.2834 63.2311 60.8385 63.3239 61.5412Z" fill="white"/>
<path d="M68.8933 59.3636V60.9545H64.2946V59.3636H68.8933ZM65.3386 57.5341H67.4565V64.6534C67.4565 64.849 67.4863 65.0014 67.546 65.1108C67.6056 65.2169 67.6885 65.2914 67.7946 65.3345C67.9039 65.3776 68.0299 65.3991 68.1724 65.3991C68.2718 65.3991 68.3713 65.3909 68.4707 65.3743C68.5701 65.3544 68.6464 65.3395 68.6994 65.3295L69.0325 66.9055C68.9264 66.9387 68.7773 66.9768 68.5851 67.0199C68.3928 67.0663 68.1592 67.0945 67.8841 67.1044C67.3736 67.1243 66.9262 67.0563 66.5417 66.9006C66.1606 66.7448 65.8639 66.5028 65.6518 66.1747C65.4397 65.8466 65.3353 65.4323 65.3386 64.9318V57.5341Z" fill="white"/>
<path d="M73.671 67.1491C72.8855 67.1491 72.2093 66.9901 71.6426 66.6719C71.0791 66.3504 70.6449 65.8963 70.34 65.3097C70.0351 64.7197 69.8826 64.022 69.8826 63.2166C69.8826 62.4311 70.0351 61.7417 70.34 61.1484C70.6449 60.5552 71.0742 60.0928 71.6277 59.7614C72.1845 59.4299 72.8374 59.2642 73.5865 59.2642C74.0903 59.2642 74.5592 59.3454 74.9934 59.5078C75.4309 59.6669 75.8121 59.9072 76.1369 60.2287C76.465 60.5502 76.7202 60.9545 76.9025 61.4418C77.0848 61.9257 77.176 62.4924 77.176 63.142V63.7237H70.7278V62.4112H75.1824C75.1824 62.1063 75.1161 61.8362 74.9835 61.6009C74.8509 61.3655 74.667 61.1816 74.4316 61.049C74.1996 60.9131 73.9295 60.8452 73.6213 60.8452C73.2998 60.8452 73.0147 60.9197 72.7662 61.0689C72.5209 61.2147 72.3287 61.4119 72.1895 61.6605C72.0502 61.9058 71.979 62.1792 71.9757 62.4808V63.7287C71.9757 64.1065 72.0453 64.433 72.1845 64.7081C72.327 64.9832 72.5275 65.1953 72.786 65.3445C73.0446 65.4936 73.3511 65.5682 73.7058 65.5682C73.9411 65.5682 74.1565 65.535 74.3521 65.4688C74.5476 65.4025 74.715 65.303 74.8542 65.1705C74.9934 65.0379 75.0995 64.8755 75.1724 64.6832L77.1312 64.8125C77.0318 65.2831 76.8279 65.6941 76.5197 66.0455C76.2148 66.3935 75.8204 66.6652 75.3365 66.8608C74.8559 67.053 74.3007 67.1491 73.671 67.1491Z" fill="white"/>
<path d="M78.5581 67V59.3636H80.6113V60.696H80.6909C80.8301 60.2221 81.0637 59.8641 81.3919 59.6222C81.72 59.3769 82.0978 59.2543 82.5254 59.2543C82.6315 59.2543 82.7458 59.2609 82.8684 59.2741C82.9911 59.2874 83.0988 59.3056 83.1916 59.3288V61.2081C83.0921 61.1783 82.9546 61.1518 82.7789 61.1286C82.6033 61.1054 82.4425 61.0938 82.2967 61.0938C81.9851 61.0938 81.7067 61.1617 81.4615 61.2976C81.2195 61.4302 81.0273 61.6158 80.8848 61.8544C80.7456 62.093 80.676 62.3681 80.676 62.6797V67H78.5581Z" fill="white"/>
<path d="M22.6233 87.1442C22.1361 87.1442 21.7019 87.0597 21.3208 86.8906C20.9396 86.7183 20.638 86.4647 20.4159 86.13C20.1972 85.7919 20.0878 85.371 20.0878 84.8672C20.0878 84.4429 20.1657 84.0866 20.3215 83.7983C20.4772 83.5099 20.6894 83.2779 20.9578 83.1023C21.2263 82.9266 21.5312 82.794 21.8726 82.7045C22.2173 82.6151 22.5786 82.5521 22.9564 82.5156C23.4005 82.4692 23.7585 82.4261 24.0303 82.3864C24.3021 82.3433 24.4993 82.2803 24.6219 82.1974C24.7445 82.1146 24.8058 81.9919 24.8058 81.8295V81.7997C24.8058 81.4848 24.7064 81.2412 24.5075 81.0689C24.312 80.8965 24.0336 80.8104 23.6723 80.8104C23.2912 80.8104 22.9879 80.8949 22.7625 81.0639C22.5371 81.2296 22.388 81.4384 22.3151 81.6903L20.3563 81.5312C20.4557 81.0672 20.6512 80.6662 20.9429 80.3281C21.2346 79.9867 21.6108 79.7249 22.0715 79.5426C22.5355 79.357 23.0724 79.2642 23.6823 79.2642C24.1065 79.2642 24.5125 79.3139 24.9003 79.4134C25.2914 79.5128 25.6378 79.6669 25.9394 79.8757C26.2443 80.0845 26.4846 80.353 26.6602 80.6811C26.8359 81.0059 26.9237 81.3954 26.9237 81.8494V87H24.9152V85.941H24.8556C24.7329 86.1797 24.5689 86.3901 24.3634 86.5724C24.1579 86.7514 23.911 86.8923 23.6226 86.995C23.3343 87.0945 23.0012 87.1442 22.6233 87.1442ZM23.2298 85.6825C23.5414 85.6825 23.8165 85.6212 24.0551 85.4986C24.2938 85.3726 24.481 85.2036 24.6169 84.9915C24.7528 84.7794 24.8208 84.5391 24.8208 84.2706V83.4602C24.7545 83.5033 24.6633 83.5431 24.5473 83.5795C24.4346 83.6127 24.307 83.6442 24.1645 83.674C24.022 83.7005 23.8795 83.7254 23.7369 83.7486C23.5944 83.7685 23.4652 83.7867 23.3492 83.8033C23.1006 83.8397 22.8835 83.8977 22.6979 83.9773C22.5123 84.0568 22.3681 84.1645 22.2654 84.3004C22.1626 84.433 22.1112 84.5987 22.1112 84.7976C22.1112 85.0859 22.2156 85.3063 22.4244 85.4588C22.6366 85.608 22.905 85.6825 23.2298 85.6825Z" fill="white"/>
<path d="M35.4127 79.3636L32.743 87H30.3566L27.6869 79.3636H29.9241L31.51 84.8274H31.5896L33.1705 79.3636H35.4127Z" fill="white"/>
<path d="M38.469 87.1442C37.9818 87.1442 37.5476 87.0597 37.1665 86.8906C36.7853 86.7183 36.4837 86.4647 36.2616 86.13C36.0429 85.7919 35.9335 85.371 35.9335 84.8672C35.9335 84.4429 36.0114 84.0866 36.1672 83.7983C36.3229 83.5099 36.5351 83.2779 36.8035 83.1023C37.072 82.9266 37.3769 82.794 37.7183 82.7045C38.063 82.6151 38.4243 82.5521 38.8021 82.5156C39.2462 82.4692 39.6042 82.4261 39.876 82.3864C40.1478 82.3433 40.345 82.2803 40.4676 82.1974C40.5902 82.1146 40.6515 81.9919 40.6515 81.8295V81.7997C40.6515 81.4848 40.5521 81.2412 40.3532 81.0689C40.1577 80.8965 39.8793 80.8104 39.518 80.8104C39.1369 80.8104 38.8336 80.8949 38.6082 81.0639C38.3828 81.2296 38.2337 81.4384 38.1608 81.6903L36.202 81.5312C36.3014 81.0672 36.497 80.6662 36.7886 80.3281C37.0803 79.9867 37.4565 79.7249 37.9172 79.5426C38.3812 79.357 38.9181 79.2642 39.528 79.2642C39.9522 79.2642 40.3582 79.3139 40.746 79.4134C41.1371 79.5128 41.4835 79.6669 41.7851 79.8757C42.09 80.0845 42.3303 80.353 42.5059 80.6811C42.6816 81.0059 42.7694 81.3954 42.7694 81.8494V87H40.7609V85.941H40.7013C40.5786 86.1797 40.4146 86.3901 40.2091 86.5724C40.0036 86.7514 39.7567 86.8923 39.4683 86.995C39.18 87.0945 38.8469 87.1442 38.469 87.1442ZM39.0756 85.6825C39.3871 85.6825 39.6622 85.6212 39.9008 85.4986C40.1395 85.3726 40.3267 85.2036 40.4626 84.9915C40.5985 84.7794 40.6665 84.5391 40.6665 84.2706V83.4602C40.6002 83.5033 40.509 83.5431 40.393 83.5795C40.2803 83.6127 40.1527 83.6442 40.0102 83.674C39.8677 83.7005 39.7252 83.7254 39.5827 83.7486C39.4401 83.7685 39.3109 83.7867 39.1949 83.8033C38.9463 83.8397 38.7292 83.8977 38.5436 83.9773C38.358 84.0568 38.2138 84.1645 38.1111 84.3004C38.0083 84.433 37.9569 84.5987 37.9569 84.7976C37.9569 85.0859 38.0613 85.3063 38.2702 85.4588C38.4823 85.608 38.7507 85.6825 39.0756 85.6825Z" fill="white"/>
<path d="M44.4126 87V79.3636H46.5305V87H44.4126ZM45.4765 78.3793C45.1616 78.3793 44.8915 78.2749 44.6661 78.066C44.444 77.8539 44.333 77.6004 44.333 77.3054C44.333 77.0137 44.444 76.7635 44.6661 76.5547C44.8915 76.3426 45.1616 76.2365 45.4765 76.2365C45.7913 76.2365 46.0598 76.3426 46.2819 76.5547C46.5073 76.7635 46.6199 77.0137 46.6199 77.3054C46.6199 77.6004 46.5073 77.8539 46.2819 78.066C46.0598 78.2749 45.7913 78.3793 45.4765 78.3793Z" fill="white"/>
<path d="M50.3449 76.8182V87H48.227V76.8182H50.3449Z" fill="white"/>
<path d="M54.219 87.1442C53.7318 87.1442 53.2976 87.0597 52.9165 86.8906C52.5353 86.7183 52.2337 86.4647 52.0116 86.13C51.7929 85.7919 51.6835 85.371 51.6835 84.8672C51.6835 84.4429 51.7614 84.0866 51.9172 83.7983C52.0729 83.5099 52.2851 83.2779 52.5535 83.1023C52.822 82.9266 53.1269 82.794 53.4683 82.7045C53.813 82.6151 54.1743 82.5521 54.5521 82.5156C54.9962 82.4692 55.3542 82.4261 55.626 82.3864C55.8978 82.3433 56.095 82.2803 56.2176 82.1974C56.3402 82.1146 56.4015 81.9919 56.4015 81.8295V81.7997C56.4015 81.4848 56.3021 81.2412 56.1032 81.0689C55.9077 80.8965 55.6293 80.8104 55.268 80.8104C54.8869 80.8104 54.5836 80.8949 54.3582 81.0639C54.1328 81.2296 53.9837 81.4384 53.9108 81.6903L51.952 81.5312C52.0514 81.0672 52.247 80.6662 52.5386 80.3281C52.8303 79.9867 53.2065 79.7249 53.6672 79.5426C54.1312 79.357 54.6681 79.2642 55.278 79.2642C55.7022 79.2642 56.1082 79.3139 56.496 79.4134C56.8871 79.5128 57.2335 79.6669 57.5351 79.8757C57.84 80.0845 58.0803 80.353 58.2559 80.6811C58.4316 81.0059 58.5194 81.3954 58.5194 81.8494V87H56.5109V85.941H56.4513C56.3286 86.1797 56.1646 86.3901 55.9591 86.5724C55.7536 86.7514 55.5067 86.8923 55.2183 86.995C54.93 87.0945 54.5969 87.1442 54.219 87.1442ZM54.8256 85.6825C55.1371 85.6825 55.4122 85.6212 55.6508 85.4986C55.8895 85.3726 56.0767 85.2036 56.2126 84.9915C56.3485 84.7794 56.4165 84.5391 56.4165 84.2706V83.4602C56.3502 83.5033 56.259 83.5431 56.143 83.5795C56.0303 83.6127 55.9027 83.6442 55.7602 83.674C55.6177 83.7005 55.4752 83.7254 55.3327 83.7486C55.1901 83.7685 55.0609 83.7867 54.9449 83.8033C54.6963 83.8397 54.4792 83.8977 54.2936 83.9773C54.108 84.0568 53.9638 84.1645 53.8611 84.3004C53.7583 84.433 53.7069 84.5987 53.7069 84.7976C53.7069 85.0859 53.8113 85.3063 54.0202 85.4588C54.2323 85.608 54.5007 85.6825 54.8256 85.6825Z" fill="white"/>
<path d="M60.2023 87V76.8182H62.3202V80.6463H62.3849C62.4777 80.4408 62.6119 80.232 62.7876 80.0199C62.9665 79.8045 63.1985 79.6255 63.4836 79.483C63.7719 79.3371 64.1299 79.2642 64.5574 79.2642C65.1143 79.2642 65.628 79.41 66.0986 79.7017C66.5693 79.9901 66.9455 80.4259 67.2272 81.0092C67.5089 81.5893 67.6498 82.3168 67.6498 83.1918C67.6498 84.0436 67.5122 84.7628 67.2371 85.3494C66.9653 85.9328 66.5941 86.3752 66.1235 86.6768C65.6562 86.9751 65.1325 87.1243 64.5525 87.1243C64.1415 87.1243 63.7918 87.0563 63.5035 86.9205C63.2184 86.7846 62.9848 86.6139 62.8025 86.4084C62.6202 86.1996 62.481 85.9891 62.3849 85.777H62.2904V87H60.2023ZM62.2755 83.1818C62.2755 83.6359 62.3385 84.032 62.4644 84.37C62.5903 84.7081 62.7726 84.9716 63.0113 85.1605C63.2499 85.3461 63.5399 85.4389 63.8813 85.4389C64.226 85.4389 64.5177 85.3445 64.7563 85.1555C64.9949 84.9633 65.1756 84.6982 65.2982 84.3601C65.4242 84.0187 65.4871 83.6259 65.4871 83.1818C65.4871 82.741 65.4258 82.3532 65.3032 82.0185C65.1805 81.6837 64.9999 81.4219 64.7613 81.233C64.5226 81.044 64.2293 80.9496 63.8813 80.9496C63.5366 80.9496 63.2449 81.0407 63.0063 81.223C62.771 81.4053 62.5903 81.6638 62.4644 81.9986C62.3385 82.3333 62.2755 82.7277 62.2755 83.1818Z" fill="white"/>
<path d="M71.1808 76.8182V87H69.0629V76.8182H71.1808Z" fill="white"/>
<path d="M76.3575 87.1491C75.572 87.1491 74.8959 86.9901 74.3291 86.6719C73.7657 86.3504 73.3315 85.8963 73.0265 85.3097C72.7216 84.7197 72.5692 84.022 72.5692 83.2166C72.5692 82.4311 72.7216 81.7417 73.0265 81.1484C73.3315 80.5552 73.7607 80.0928 74.3142 79.7614C74.871 79.4299 75.5239 79.2642 76.273 79.2642C76.7768 79.2642 77.2458 79.3454 77.68 79.5078C78.1175 79.6669 78.4986 79.9072 78.8234 80.2287C79.1515 80.5502 79.4068 80.9545 79.589 81.4418C79.7713 81.9257 79.8625 82.4924 79.8625 83.142V83.7237H73.4143V82.4112H77.8689C77.8689 82.1063 77.8026 81.8362 77.67 81.6009C77.5374 81.3655 77.3535 81.1816 77.1182 81.049C76.8862 80.9131 76.616 80.8452 76.3078 80.8452C75.9863 80.8452 75.7013 80.9197 75.4527 81.0689C75.2074 81.2147 75.0152 81.4119 74.876 81.6605C74.7368 81.9058 74.6655 82.1792 74.6622 82.4808V83.7287C74.6622 84.1065 74.7318 84.433 74.871 84.7081C75.0135 84.9832 75.214 85.1953 75.4726 85.3445C75.7311 85.4936 76.0377 85.5682 76.3923 85.5682C76.6276 85.5682 76.8431 85.535 77.0386 85.4688C77.2342 85.4025 77.4015 85.303 77.5407 85.1705C77.68 85.0379 77.786 84.8755 77.8589 84.6832L79.8177 84.8125C79.7183 85.2831 79.5145 85.6941 79.2062 86.0455C78.9013 86.3935 78.5069 86.6652 78.023 86.8608C77.5424 87.053 76.9872 87.1491 76.3575 87.1491Z" fill="white"/>
</svg>
